# xmcd CD database file
#
# Track frame offsets:
#	150
#	15465
#	34828
#	56705
#	87966
#	107431
#
# Disc length: 1788 seconds
#
# Revision: 0
# Processed by: cddbd v1.5.1PL2 Copyright (c) Steve Scherf et al.
# Submitted via: CDex 1.51
#
DISCID=3f06fa06
DTITLE=Western Wind - Smooth Jazz and more...
DYEAR=2003
DGENRE=Jazz
TTITLE0=Tell Me Why
TTITLE1=Sunday Dreaming
TTITLE2=And My Soul Is Dancing
TTITLE3=Tears Of The Sun
TTITLE4=Full Moon
TTITLE5=Deep Inside Of Me
EXTD=YEAR: 2003
EXTT0=
EXTT1=
EXTT2=
EXTT3=
EXTT4=
EXTT5=
PLAYORDER=
